<svg width="13" height="13" viewBox="0 0 13 13" fill="none" xmlns="http://www.w3.org/2000/svg">
<g clip-path="url(#clip0_57_130)">
<circle cx="6.5" cy="6.5" r="6.5" fill="#F79D55"/>
<path d="M6.32244 9.72727V2.45455H6.78835V9.72727H6.32244ZM7.4446 4.92614C7.42566 4.7178 7.34138 4.55587 7.19176 4.44034C7.04403 4.32292 6.83286 4.2642 6.55824 4.2642C6.37642 4.2642 6.22491 4.28788 6.10369 4.33523C5.98248 4.38258 5.89157 4.44792 5.83097 4.53125C5.77036 4.61269 5.73911 4.70644 5.73722 4.8125C5.73343 4.89962 5.75047 4.97633 5.78835 5.04261C5.82813 5.1089 5.88494 5.16761 5.95881 5.21875C6.03456 5.26799 6.12547 5.31155 6.23153 5.34943C6.33759 5.38731 6.45691 5.42045 6.58949 5.44886L7.08949 5.5625C7.37737 5.625 7.63116 5.70833 7.85085 5.8125C8.07244 5.91667 8.25805 6.04072 8.40767 6.18466C8.55919 6.3286 8.67377 6.49432 8.75142 6.68182C8.82907 6.86932 8.86884 7.07955 8.87074 7.3125C8.86884 7.67992 8.77604 7.99527 8.59233 8.25852C8.40862 8.52178 8.14441 8.72348 7.79972 8.86364C7.45691 9.00379 7.04309 9.07386 6.55824 9.07386C6.0715 9.07386 5.64725 9.00095 5.28551 8.85511C4.92377 8.70928 4.64252 8.48769 4.44176 8.19034C4.241 7.89299 4.13778 7.51705 4.1321 7.0625H5.47869C5.49006 7.25 5.54025 7.40625 5.62926 7.53125C5.71828 7.65625 5.84044 7.75095 5.99574 7.81534C6.15294 7.87973 6.33475 7.91193 6.54119 7.91193C6.73059 7.91193 6.89157 7.88636 7.02415 7.83523C7.15862 7.78409 7.26184 7.71307 7.33381 7.62216C7.40578 7.53125 7.44271 7.42708 7.4446 7.30966C7.44271 7.19981 7.40862 7.10606 7.34233 7.02841C7.27604 6.94886 7.17377 6.88068 7.03551 6.82386C6.89915 6.76515 6.72491 6.71117 6.51278 6.66193L5.90483 6.51989C5.40104 6.40436 5.00426 6.2178 4.71449 5.96023C4.42472 5.70076 4.28078 5.35038 4.28267 4.90909C4.28078 4.54924 4.37737 4.2339 4.57244 3.96307C4.76752 3.69223 5.03741 3.48106 5.3821 3.32955C5.7268 3.17803 6.11979 3.10227 6.56108 3.10227C7.01184 3.10227 7.40294 3.17898 7.73438 3.33239C8.06771 3.4839 8.32623 3.69697 8.50994 3.97159C8.69366 4.24621 8.78741 4.56439 8.79119 4.92614H7.4446Z" fill="#BA7640"/>
</g>
<defs>
<clipPath id="clip0_57_130">
<rect width="13" height="13" fill="white"/>
</clipPath>
</defs>
</svg>
