<svg width="870" height="243" viewBox="0 0 870 243" fill="none" xmlns="http://www.w3.org/2000/svg">
<g clip-path="url(#clip0_56_126)">
<path d="M124 48.5455V194H94.1708L36.2873 110.051H35.364V194H0.207764V48.5455H30.4634L87.7078 132.352H88.9152V48.5455H124Z" fill="#38494A"/>
<path d="M283.393 121.273C283.393 137.277 280.315 150.842 274.16 161.969C268.005 173.096 259.672 181.547 249.16 187.324C238.696 193.1 226.954 195.989 213.933 195.989C200.865 195.989 189.099 193.077 178.635 187.253C168.171 181.429 159.861 172.977 153.706 161.898C147.598 150.771 144.544 137.229 144.544 121.273C144.544 105.269 147.598 91.7037 153.706 80.5768C159.861 69.4499 168.171 60.9982 178.635 55.2217C189.099 49.4451 200.865 46.5569 213.933 46.5569C226.954 46.5569 238.696 49.4451 249.16 55.2217C259.672 60.9982 268.005 69.4499 274.16 80.5768C280.315 91.7037 283.393 105.269 283.393 121.273ZM247.456 121.273C247.456 111.803 246.106 103.801 243.407 97.2671C240.756 90.733 236.921 85.7851 231.902 82.4234C226.93 79.0616 220.94 77.3807 213.933 77.3807C206.973 77.3807 200.983 79.0616 195.964 82.4234C190.945 85.7851 187.086 90.733 184.387 97.2671C181.736 103.801 180.41 111.803 180.41 121.273C180.41 130.742 181.736 138.744 184.387 145.278C187.086 151.813 190.945 156.76 195.964 160.122C200.983 163.484 206.973 165.165 213.933 165.165C220.94 165.165 226.93 163.484 231.902 160.122C236.921 156.76 240.756 151.813 243.407 145.278C246.106 138.744 247.456 130.742 247.456 121.273Z" fill="#38494A"/>
<path d="M292.52 77.0967V48.5455H415.46V77.0967H371.355V194H336.696V77.0967H292.52Z" fill="#38494A"/>
<path d="M467.786 48.5455V194H432.63V48.5455H467.786Z" fill="#38494A"/>
<path d="M489.856 194V48.5455H589.146V77.0967H525.012V106.926H582.825V135.548H525.012V194H489.856Z" fill="#38494A"/>
<path d="M599.604 48.5455H638.88L669.633 109.412H670.911L701.664 48.5455H740.939L687.743 145.421V194H652.8V145.421L599.604 48.5455Z" fill="#38494A"/>
<path d="M755.179 194V173.972L825.847 77.0967H755.25V48.5455H870.307V68.5739L799.64 165.449H870.236V194H755.179Z" fill="#38494A"/>
<path d="M-1.5299e-06 3.89665e-05L870 9.37629e-07L870 35L0 35L-1.5299e-06 3.89665e-05Z" fill="#38494A"/>
<path d="M-1.5299e-06 208L870 208L870 243L0 243L-1.5299e-06 208Z" fill="#38494A"/>
</g>
<defs>
<clipPath id="clip0_56_126">
<rect width="870" height="243" fill="white"/>
</clipPath>
</defs>
</svg>
